<svg width="1285" height="224" viewBox="0 0 1285 224" fill="none" xmlns="http://www.w3.org/2000/svg">
<path fill-rule="evenodd" clip-rule="evenodd" d="M926.866 -36.9951C913.764 -36.2724 902.306 -35.4219 901.402 -35.1032C900.498 -34.7863 906.043 -34.0025 913.723 -33.3632C927.648 -32.2032 927.626 -32.1995 906.331 -31.6288C894.584 -31.3138 877.212 -30.4002 867.724 -29.5997C855.789 -28.5917 861.864 -28.4082 887.438 -29.0049C945.886 -30.3669 1005.9 -31.5713 1013.62 -31.5398C1017.93 -31.5213 1020.3 -32.2366 1019.68 -33.3632C1019.02 -34.5806 1033.39 -35.2162 1061.58 -35.2162C1092.03 -35.2162 1104.16 -34.6325 1103.38 -33.2039C1102.69 -31.9364 1103.72 -31.3508 1106.16 -31.6251C1108.29 -31.866 1111.15 -31.5676 1112.5 -30.9617C1113.86 -30.3576 1126.06 -28.9716 1139.61 -27.882C1153.16 -26.7924 1167.03 -25.1655 1170.41 -24.2668C1173.8 -23.3699 1176.57 -23.3254 1176.57 -24.1685C1176.57 -26.2736 1172.22 -27.4984 1147 -32.4997C1143.84 -33.126 1137.93 -34.501 1133.86 -35.5535C1125.1 -37.8216 962.439 -38.9538 926.866 -36.9951ZM426.628 -35.0439C418.906 -34.0118 419.128 -33.9284 430.324 -33.6541C442.116 -33.3669 445.68 -34.1507 438.538 -35.4627C436.504 -35.837 431.145 -35.648 426.628 -35.0439ZM408.557 -34.1322C406.75 -33.8153 398.803 -33.0204 390.896 -32.3663C382.991 -31.7122 376.522 -30.5633 376.522 -29.811C376.522 -29.0605 378.924 -28.777 381.861 -29.1828C385.955 -29.748 386.625 -29.4645 384.736 -27.9635C382.863 -26.4774 384.046 -26.0531 389.664 -26.1994C396.406 -26.3736 396.623 -26.5145 392.129 -27.8042L387.2 -29.218L393.224 -29.4385C396.536 -29.559 399.493 -28.9141 399.796 -28.0043C400.106 -27.0648 406.364 -26.9499 414.307 -27.7393C429.368 -29.2328 429.107 -29.9462 413.485 -29.9852C408.064 -30 405.476 -30.4188 407.735 -30.9172C411.616 -31.7733 416.869 -35.5238 413.403 -34.9642C412.546 -34.8252 410.364 -34.4509 408.557 -34.1322ZM974.987 -33.8468C969.377 -33.4855 959.766 -33.4837 953.63 -33.8413C947.493 -34.1971 952.083 -34.4935 963.829 -34.4954C975.575 -34.4991 980.596 -34.2063 974.987 -33.8468ZM997.918 -33.9895C996.789 -33.4744 994.941 -33.4744 993.811 -33.9895C992.682 -34.5028 993.605 -34.9234 995.864 -34.9234C998.123 -34.9234 999.048 -34.5028 997.918 -33.9895ZM1122.77 -32.1365C1121.64 -31.6214 1119.79 -31.6214 1118.66 -32.1365C1117.54 -32.6498 1118.46 -33.0704 1120.72 -33.0704C1122.98 -33.0704 1123.9 -32.6498 1122.77 -32.1365ZM1134.3 -32.1476C1133.19 -31.6399 1130.97 -31.6084 1129.37 -32.0791C1127.78 -32.5497 1128.69 -32.9648 1131.4 -33.0019C1134.11 -33.0389 1135.41 -32.6554 1134.3 -32.1476ZM431.145 -30.2335C432.726 -29.7665 435.315 -29.7665 436.895 -30.2335C438.476 -30.6986 437.183 -31.0803 434.02 -31.0803C430.858 -31.0803 429.565 -30.6986 431.145 -30.2335ZM446.752 -30.2835C447.883 -29.7684 449.731 -29.7684 450.859 -30.2835C451.99 -30.7968 451.065 -31.2174 448.806 -31.2174C446.547 -31.2174 445.624 -30.7968 446.752 -30.2835ZM132.245 -27.2223C131.771 -26.3588 123.148 -25.8233 113.081 -26.0327C94.8147 -26.4088 62.8208 -23.6812 57.4356 -21.2871C55.6335 -20.4866 54.7184 -18.3149 54.9352 -15.3556C55.3049 -10.3191 55.5595 -10.1393 64.7971 -8.40863C72.3573 -6.99108 72.9668 -3.9929 65.6185 -4.36906C60.7262 -4.61921 60.3188 -4.21526 60.7525 0.454338C61.1665 4.9164 60.6555 5.55384 56.6454 5.57793C50.9005 5.61499 48.8766 7.26232 48.4231 12.2729C48.1291 15.5323 49.1953 16.4181 54.5837 17.3891C63.3054 18.9623 62.8339 21.525 53.6062 22.6979C46.317 23.6245 37.2536 30.299 38.9884 33.464C39.4188 34.2515 37.5526 35.4467 34.8403 36.1193C30.5772 37.1756 30.2256 37.6981 32.2447 39.9755C33.5293 41.4245 35.5582 42.6234 36.7526 42.6383C38.3888 42.6605 38.3313 43.0885 36.5193 44.382C34.8354 45.5827 36.7558 46.2665 42.941 46.6686C51.6595 47.2356 51.7663 47.3134 51.9141 53.2653C51.9979 56.5785 51.51 59.2876 50.8331 59.2876C50.1563 59.2876 49.601 60.9553 49.601 62.9936C49.601 65.7398 48.4313 66.7645 45.0833 66.9517C41.1454 67.1722 41.0452 67.3075 44.3046 68.0135C49.0671 69.0437 57.7297 74.0858 54.7644 74.1006C53.5109 74.1062 52.9294 75.268 53.4354 76.756C54.7726 80.6862 51.5199 82.8061 40.7085 85.052C31.0356 87.0606 26.8677 88.9359 32.0771 88.9359C33.5835 88.9359 34.8157 90.1867 34.8157 91.7154C34.8157 93.8779 32.6258 94.4949 24.9588 94.4949C14.3297 94.4949 11.0244 98.0342 21.2624 98.453C25.0754 98.6086 26.0151 99.0107 23.7267 99.5092C21.6928 99.9502 20.0303 101.031 20.0303 101.911C20.0303 102.791 18.5403 104.044 16.72 104.696C14.8998 105.346 13.8188 106.623 14.3149 107.529C14.8127 108.437 12.7904 109.969 9.82183 110.935C5.15787 112.452 6.09922 112.721 16.7447 112.914C29.396 113.144 29.8659 115.095 17.8569 117.53C12.5325 118.608 11.8836 119.223 13.6036 121.56C15.2366 123.78 15.9085 123.849 17.042 121.914C18.1361 120.044 18.9986 120.322 20.9174 123.161C23.1796 126.506 23.0728 126.963 19.6541 128.631C16.4605 130.188 17.226 130.595 24.9588 131.466C33.0677 132.378 33.6361 132.713 30.5033 134.739C28.5845 135.98 23.7792 137.552 19.825 138.23C7.53504 140.339 6.82698 142.547 18.3875 142.716L29.0658 142.87L15.1019 148.794L1.1379 154.718L9.35199 155.644L17.5661 156.571L7.8866 159.078C1.12312 160.831 -1.1029 162.078 0.493923 163.22C1.75232 164.118 4.25926 164.924 6.06636 165.011C9.32899 165.169 9.329 165.18 6.09594 166.605C3.73357 167.645 5.76409 168.478 13.4886 169.64C23.1369 171.089 23.5197 171.302 17.5661 171.905C13.9519 172.27 10.2933 173.348 9.43414 174.299C8.46652 175.37 15.3335 176.083 27.5051 176.174C42.6667 176.287 46.1084 176.745 42.6191 178.181C40.0004 179.261 38.1013 181.429 38.1013 183.342C38.1013 186.017 35.2297 187.3 22.9266 190.116C14.5811 192.027 9.14499 193.893 10.8453 194.261C13.3194 194.799 13.4788 195.26 11.6437 196.57C9.9582 197.775 10.4379 198.221 13.459 198.264C15.7179 198.295 18.6536 199.098 19.9843 200.046C22.672 201.962 21.9738 202.431 13.229 204.579C10.8437 205.164 8.49116 206.825 7.99996 208.27C7.25083 210.468 10.0896 210.757 25.4795 210.042C39.0574 209.412 43.2088 209.719 41.3869 211.22C39.3088 212.934 39.4386 213.207 42.2084 212.958C47.6986 212.462 48.9012 213.055 46.3154 214.982C44.6397 216.231 47.0037 216.394 53.7081 215.493C65.9799 213.842 65.3524 213.824 93.1357 216.685C110.162 218.438 135.121 218.723 189.241 217.787C234.163 217.009 276.279 217.276 298.488 218.477C371.684 222.44 378.965 222.718 377.918 221.499C377.332 220.815 369.2 219.803 359.847 219.251C350.496 218.701 342.141 217.504 341.283 216.596C339.144 214.329 480.604 214.506 530.495 216.831C559.113 218.165 775.273 220.776 850.475 220.696C867.253 220.678 940.429 218.336 943.787 217.709C946.558 217.191 947.989 217.574 947.386 218.675C946.836 219.679 947.125 220.5 948.029 220.5C948.932 220.5 950.128 219.666 950.687 218.647C952.017 216.218 958.079 216.246 958.079 218.68C958.079 220.776 996.888 220.9 1025.23 218.897C1038.2 217.98 1042.46 218.249 1043.06 220.022C1043.5 221.304 1044.93 222.353 1046.24 222.353C1047.56 222.353 1048.17 221.519 1047.61 220.5C1047.05 219.481 1047.93 218.504 1049.57 218.33C1051.2 218.156 1053.65 217.828 1055.01 217.6C1056.36 217.374 1061.54 217.087 1066.51 216.963C1072.01 216.826 1074.7 216.134 1073.39 215.197C1071.25 213.672 1082.91 212.252 1115.79 210.036C1132.32 208.922 1139.8 205.88 1127.21 205.394C1123.19 205.239 1119.16 204.918 1118.25 204.681C1117.35 204.444 1109.59 204.04 1101 203.784L1085.4 203.315L1096.08 201.874C1101.95 201.08 1114.02 200.171 1122.9 199.854C1131.79 199.535 1139.41 198.631 1139.84 197.843C1140.27 197.056 1142.1 196.411 1143.91 196.411C1145.72 196.411 1146.8 195.686 1146.31 194.799C1145.82 193.904 1142.31 193.868 1138.41 194.719C1130.55 196.435 1123.05 196.867 1124.23 195.536C1125.81 193.75 1159.85 187.135 1162.21 188.154C1163.58 188.749 1165.08 187.95 1165.63 186.325C1166.33 184.277 1169.13 183.353 1175.29 183.138L1183.97 182.836L1174.93 181.742C1167.82 180.881 1166.84 180.412 1170.32 179.543C1172.75 178.933 1178.3 179.055 1182.64 179.812C1186.98 180.568 1190.71 181.018 1190.91 180.812C1191.12 180.605 1190.11 178.54 1188.67 176.222C1186.93 173.432 1185.5 172.631 1184.42 173.85C1183.34 175.071 1181.04 175.04 1177.63 173.754C1168.45 170.306 1169.9 169.529 1184.25 170.205C1194.27 170.676 1198.02 170.274 1197.22 168.816C1196.53 167.552 1197.55 166.698 1199.89 166.596C1203.26 166.448 1187.12 162.747 1174.11 160.687C1171.4 160.257 1174.73 159.767 1181.5 159.601C1188.28 159.432 1194.93 158.485 1196.29 157.497C1198.33 156.008 1198.19 155.691 1195.47 155.644C1193.66 155.613 1191.07 154.707 1189.72 153.63C1187.91 152.2 1189.35 151.988 1195.05 152.846C1205.25 154.377 1207.4 152.759 1202.7 147.111C1200.61 144.61 1199.89 142.673 1201.03 142.673C1202.14 142.673 1202.6 141.839 1202.04 140.82C1201.48 139.801 1197.92 138.954 1194.14 138.94C1190.35 138.923 1186.14 138.041 1184.79 136.977C1183.02 135.587 1184.74 135.384 1190.95 136.255C1199.72 137.483 1203.04 135.015 1195.88 132.589C1192.27 131.37 1192.26 131.296 1195.47 129.56C1198.07 128.151 1197.55 127.942 1192.96 128.557C1186.35 129.445 1179.4 125.45 1184.05 123.435C1185.51 122.805 1188.03 122.29 1189.65 122.29C1191.27 122.29 1193.52 121.039 1194.65 119.511C1196.25 117.328 1196.26 116.731 1194.67 116.731C1193.55 116.731 1193.07 115.493 1193.6 113.952C1194.2 112.165 1193.53 111.126 1191.72 111.042C1189.38 110.933 1189.46 110.653 1192.18 109.393C1195.23 107.981 1195.14 107.729 1190.84 105.817C1188.3 104.687 1185.16 103.76 1183.86 103.76C1182.56 103.76 1181.5 102.926 1181.5 101.907C1181.5 100.888 1185.75 99.9724 1190.95 99.8742L1200.39 99.6945L1194.23 96.8427C1187.55 93.7519 1186.34 90.1107 1191.05 87.27C1192.69 86.2824 1202.3 84.8833 1212.41 84.1606C1222.52 83.4398 1230.79 82.2039 1230.79 81.4145C1230.79 80.6251 1228.75 79.1427 1226.27 78.118C1222.49 76.5614 1223.69 76.2334 1233.66 76.1111C1240.42 76.0278 1245.57 75.1624 1245.57 74.1117C1245.57 73.0926 1244.05 72.2587 1242.19 72.2587C1240.33 72.2587 1239.24 71.4619 1239.78 70.4872C1240.31 69.5126 1241.83 69.1846 1243.16 69.759C1244.49 70.3316 1245.57 70.0184 1245.57 69.0623C1245.57 68.1043 1242.06 66.3921 1237.77 65.2562C1231.15 63.5032 1233.69 63.2809 1254.61 63.7812L1279.25 64.3723L1257.89 60.985C1220.52 55.0572 1221.19 55.211 1225.86 53.634C1229.66 52.3499 1229.7 52.2313 1226.37 52.0608C1221.36 51.8033 1220.09 48.6068 1224.6 47.6284C1226.67 47.1781 1225.29 46.7093 1221.48 46.5685C1217.71 46.4295 1214.39 45.4938 1214.08 44.4894C1213.78 43.4851 1205.04 41.9804 1194.65 41.1484C1176.14 39.666 1175.9 39.5882 1182.69 37.359C1187.11 35.9081 1198.63 35.2336 1214.51 35.4949C1237.49 35.8748 1239.59 35.6283 1241.74 32.3095C1243.78 29.1464 1246.54 28.6387 1264.53 28.0976C1280.85 27.6084 1285 26.9506 1285 24.8549C1285 23.4095 1284.36 22.2273 1283.57 22.2273C1281.26 22.2273 1253.23 16.6441 1250.09 15.5601C1244.15 13.507 1247.55 11.1018 1256.66 10.8961C1266.01 10.6848 1266.04 10.6663 1259.54 9.15055C1255.92 8.30742 1247.05 7.50692 1239.82 7.3735C1226.95 7.13261 1209.49 4.61436 1214.36 3.69712C1218.99 2.82434 1202.05 0.265327 1190.73 0.128204C1180.86 0.00775528 1178.93 -0.598175 1175.61 -4.64146L1171.8 -9.274L1178.71 -9.44076L1185.61 -9.60754L1179.99 -11.4291C1176.9 -12.4297 1173.02 -12.8485 1171.37 -12.3611C1169.71 -11.8738 1168.36 -12.1684 1168.36 -13.0171C1168.36 -13.8658 1167.07 -14.9424 1165.48 -15.4093C1163.9 -15.8744 1165.94 -16.4581 1170 -16.7027L1177.4 -17.1493L1170 -18.5539C1145.84 -23.142 974.006 -25.675 918.652 -22.2581C902.84 -21.2815 882.386 -20.4625 873.2 -20.4384C861.411 -20.4051 856.253 -19.7102 855.664 -18.0758C855.037 -16.3321 854.493 -16.2932 853.461 -17.9239C852.303 -19.7509 818.188 -21.8541 815.154 -20.2865C812.189 -18.754 379.431 -18.956 350.237 -20.5033C330.81 -21.5336 308.632 -22.701 300.952 -23.0975C293.272 -23.494 270.412 -24.2538 250.155 -24.7819C229.895 -25.3119 205.869 -26.268 196.763 -26.9054C170.432 -28.7511 133.183 -28.9345 132.245 -27.2223ZM965.986 -28.3916C967.171 -27.856 968.588 -27.9228 969.134 -28.538C969.679 -29.1532 968.71 -29.5905 966.978 -29.5108C965.065 -29.4218 964.675 -28.9827 965.986 -28.3916ZM921.63 -26.5386C922.815 -26.003 924.232 -26.0697 924.778 -26.6849C925.323 -27.3001 924.354 -27.7375 922.622 -27.6578C920.708 -27.5688 920.319 -27.1297 921.63 -26.5386ZM934.773 -26.5386C935.957 -26.003 937.375 -26.0697 937.92 -26.6849C938.466 -27.3001 937.496 -27.7375 935.765 -27.6578C933.851 -27.5688 933.462 -27.1297 934.773 -26.5386ZM407.325 -22.7899C409.358 -22.3489 412.684 -22.3489 414.717 -22.7899C416.751 -23.2328 415.087 -23.5941 411.021 -23.5941C406.955 -23.5941 405.291 -23.2328 407.325 -22.7899ZM740.026 -15.4705C738.914 -14.9628 736.696 -14.9313 735.098 -15.4019C733.5 -15.8726 734.41 -16.2877 737.12 -16.3247C739.831 -16.3618 741.139 -15.9782 740.026 -15.4705ZM1161.34 -15.5668C1160.8 -14.9516 1159.38 -14.8849 1158.2 -15.4205C1156.88 -16.0116 1157.27 -16.4507 1159.19 -16.5397C1160.92 -16.6194 1161.89 -16.182 1161.34 -15.5668ZM916.537 -12.2759C917.098 -11.644 911.704 -11.0325 904.551 -10.9158C897.397 -10.8009 872.694 -10.282 849.653 -9.76505C826.613 -9.2462 745.057 -8.18072 668.419 -7.39319C591.78 -6.60566 525.046 -5.39563 520.119 -4.70075C511.067 -3.42587 500.233 -4.89717 502.219 -7.13377C503.362 -8.42161 518.913 -8.76627 606.106 -9.4278C639.384 -9.68166 660.729 -10.534 660.729 -11.6107C660.729 -12.5816 661.769 -12.9263 663.041 -12.376C666.553 -10.8565 721.262 -11.114 760.941 -12.8373C799.735 -14.5236 914.914 -14.1067 916.537 -12.2759ZM959.448 -13.9047C958.267 -12.5724 930.107 -12.4111 928.939 -13.7305C928.4 -14.3364 935.231 -14.833 944.115 -14.833C953 -14.833 959.9 -14.4161 959.448 -13.9047ZM965.848 -13.7138C965.303 -13.0986 963.885 -13.0319 962.701 -13.5674C961.39 -14.1586 961.779 -14.5977 963.693 -14.6867C965.424 -14.7663 966.394 -14.329 965.848 -13.7138ZM841.048 -11.6699C843.092 -11.2271 846.049 -11.2438 847.62 -11.707C849.19 -12.1703 847.518 -12.5335 843.903 -12.5131C840.289 -12.4927 839.005 -12.1128 841.048 -11.6699ZM1065.43 -11.5903C1065.84 -10.8268 1055.97 -10.2005 1043.48 -10.2005C1031 -10.2005 1020.23 -10.8268 1019.55 -11.5903C1018.87 -12.3537 1028.74 -12.98 1041.49 -12.98C1054.24 -12.98 1065.01 -12.3537 1065.43 -11.5903ZM1073.9 -11.127C1069.41 -8.95157 1068.15 -8.95157 1068.15 -11.127C1068.15 -12.1462 1070.18 -12.9207 1072.67 -12.8503C1076.67 -12.7336 1076.81 -12.539 1073.9 -11.127ZM773.776 -9.8614C774.961 -9.32588 776.379 -9.3926 776.924 -10.0078C777.47 -10.623 776.5 -11.0603 774.769 -10.9806C772.855 -10.8917 772.466 -10.4525 773.776 -9.8614ZM783.56 -9.78358C786.512 -9.37221 790.947 -9.37963 793.416 -9.80211C795.886 -10.2265 793.469 -10.5637 788.048 -10.5526C782.626 -10.5433 780.607 -10.1968 783.56 -9.78358ZM451.935 -5.45864C450.753 -4.63405 449.115 -4.42651 448.298 -4.99539C447.482 -5.56426 447.781 -6.70571 448.962 -7.53031C450.145 -8.3549 451.783 -8.56244 452.599 -7.99356C453.415 -7.42468 453.117 -6.28323 451.935 -5.45864ZM481.662 -7.01887C481.662 -6.22022 476.303 -5.66617 469.752 -5.78661C460.912 -5.94968 459.111 -6.36291 462.77 -7.38948C469.077 -9.16097 481.662 -8.91265 481.662 -7.01887ZM498.09 -8.30116C498.09 -6.32214 489.221 -3.60748 486.719 -4.8212C484.672 -5.81441 484.989 -6.37588 488.233 -7.4914C493.251 -9.21841 498.09 -9.61495 498.09 -8.30116ZM444.641 -5.46235C444.114 -4.50248 437.998 -3.72792 431.049 -3.74274C424.099 -3.75942 419.278 -4.38389 420.334 -5.1325C423.258 -7.20603 445.763 -7.51178 444.641 -5.46235ZM970.021 -6.20541C968.909 -5.69768 966.691 -5.66617 965.092 -6.13684C963.494 -6.60751 964.404 -7.02258 967.115 -7.05964C969.825 -7.0967 971.133 -6.71313 970.021 -6.20541ZM1084.99 -4.25973C1082.95 -3.81871 1079.63 -3.81871 1077.59 -4.25973C1075.56 -4.7026 1077.22 -5.06394 1081.29 -5.06394C1085.36 -5.06394 1087.02 -4.7026 1084.99 -4.25973ZM66.0292 20.3743C66.0292 21.3934 65.7039 22.2273 65.3047 22.2273C64.9055 22.2273 64.1235 21.3934 63.565 20.3743C63.0064 19.3551 63.3333 18.5212 64.2895 18.5212C65.2456 18.5212 66.0292 19.3551 66.0292 20.3743ZM21.3659 88.3485C22.5504 88.884 23.9682 88.8173 24.5136 88.2021C25.059 87.5869 24.0897 87.1496 22.3582 87.2293C20.4443 87.3182 20.055 87.7574 21.3659 88.3485ZM1189.27 119.703C1188.73 120.319 1187.31 120.385 1186.12 119.85C1184.81 119.259 1185.2 118.819 1187.12 118.731C1188.85 118.651 1189.82 119.088 1189.27 119.703ZM34.8157 124.143C34.8157 125.162 34.032 125.996 33.0759 125.996C32.1198 125.996 31.7929 125.162 32.3514 124.143C32.91 123.124 33.692 122.29 34.0912 122.29C34.4904 122.29 34.8157 123.124 34.8157 124.143ZM523.621 152.063C525.389 155.289 523.377 155.972 521.123 152.909C519.826 151.149 519.702 150.085 520.792 150.085C521.752 150.085 523.027 150.975 523.621 152.063ZM627.796 156.625C628.772 155.945 629.144 154.612 628.624 153.664C628.081 152.672 631.855 151.938 637.497 151.938C643.166 151.938 647.567 152.798 647.914 153.973C648.245 155.092 651.988 156.451 656.233 156.99C666.806 158.335 664.396 161.189 653.281 160.483C646.594 160.058 644.301 160.551 644.301 162.412C644.301 165.558 638.29 165.712 637.175 162.593C636.695 161.25 636.292 161.685 636.217 163.629C636.146 165.473 635.479 166.559 634.737 166.04C633.994 165.523 632.154 166.724 630.646 168.71C627.429 172.95 619.659 173.619 619.659 169.659C619.659 167.632 618.233 167.257 613.689 168.087C609.004 168.945 607.891 168.621 608.526 166.583C608.971 165.152 610.383 164.068 611.665 164.172C612.948 164.276 615.006 163.14 616.242 161.65C618.192 159.295 617.756 159.106 612.912 160.21C609.846 160.909 606.106 161.869 604.601 162.343C603.096 162.819 601.432 162.417 600.903 161.454C600.374 160.488 603.679 159.119 608.248 158.411C612.817 157.701 617.438 156.034 618.517 154.703C620.127 152.72 620.98 152.787 623.252 155.072C624.776 156.606 626.822 157.305 627.796 156.625ZM859.51 154.509C859.51 156.03 849.463 156.795 848.663 155.335C848.198 154.486 850.448 153.791 853.663 153.791C856.878 153.791 859.51 154.114 859.51 154.509ZM559.527 165.666C558.116 169.814 556.047 167.741 556.543 162.671C557.159 156.367 557.199 156.315 558.927 159.654C559.804 161.35 560.074 164.055 559.527 165.666ZM675.957 158.713C674.844 159.221 672.627 159.252 671.028 158.782C669.43 158.311 670.34 157.896 673.05 157.859C675.761 157.822 677.069 158.205 675.957 158.713ZM731.37 159.445C720.835 161.559 683.379 161.491 680.443 159.35C678.808 158.159 688.214 157.623 708.371 157.757C729.158 157.898 736.427 158.43 731.37 159.445ZM765.459 158.824C762.973 159.249 758.909 159.249 756.423 158.824C753.938 158.4 755.972 158.053 760.941 158.053C765.911 158.053 767.945 158.4 765.459 158.824ZM781.066 158.724C779.937 159.239 778.089 159.239 776.959 158.724C775.83 158.211 776.753 157.79 779.012 157.79C781.271 157.79 782.196 158.211 781.066 158.724ZM797.494 158.724C796.365 159.239 794.517 159.239 793.387 158.724C792.258 158.211 793.181 157.79 795.44 157.79C797.699 157.79 798.624 158.211 797.494 158.724ZM517.804 160.257C517.804 162.955 511.68 168.606 508.815 168.554C505.611 168.495 505.628 168.356 509.242 164.958L512.999 161.424L505.956 160.711C499.771 160.084 500.063 159.958 508.358 159.675C513.554 159.497 517.804 159.758 517.804 160.257ZM525.573 160.47C525.028 161.085 523.61 161.152 522.425 160.616C521.114 160.025 521.504 159.586 523.418 159.497C525.149 159.417 526.118 159.855 525.573 160.47ZM626.23 161.204C626.23 162.223 627.014 163.057 627.97 163.057C628.926 163.057 629.253 162.223 628.694 161.204C628.136 160.184 627.354 159.35 626.955 159.35C626.555 159.35 626.23 160.184 626.23 161.204ZM1139.99 160.47C1139.44 161.085 1138.02 161.152 1136.84 160.616C1135.53 160.025 1135.92 159.586 1137.83 159.497C1139.56 159.417 1140.53 159.855 1139.99 160.47ZM1152.34 160.577C1151.21 161.092 1149.37 161.092 1148.24 160.577C1147.11 160.064 1148.03 159.643 1150.29 159.643C1152.55 159.643 1153.47 160.064 1152.34 160.577ZM446.718 162.323C446.172 162.938 444.755 163.005 443.57 162.469C442.259 161.878 442.648 161.439 444.562 161.35C446.294 161.27 447.263 161.708 446.718 162.323ZM492.786 163.405C492.428 164.615 491.154 165.973 489.955 166.423C488.73 166.885 488.247 166.386 488.851 165.282C489.454 164.181 488.294 162.968 486.205 162.515C483.555 161.941 484.061 161.635 487.959 161.456C491.532 161.291 493.21 161.969 492.786 163.405ZM544.911 164.91C544.313 167.035 544.615 168.616 545.622 168.616C546.586 168.616 547.375 169.31 547.375 170.159C547.375 172.566 540.695 171.415 539.238 168.756C538.229 166.916 537.14 166.861 534.408 168.51C532.466 169.681 530.079 170.083 529.102 169.401C527.13 168.026 538.218 161.593 542.967 161.354C545.226 161.241 545.699 162.106 544.911 164.91ZM855.403 163.057C855.962 164.076 855.635 164.91 854.679 164.91C853.723 164.91 852.939 164.076 852.939 163.057C852.939 162.037 853.264 161.204 853.663 161.204C854.063 161.204 854.845 162.037 855.403 163.057ZM871.01 162.021C871.01 162.471 870.271 163.353 869.367 163.983C868.464 164.613 867.724 164.244 867.724 163.166C867.724 162.087 868.464 161.204 869.367 161.204C870.271 161.204 871.01 161.57 871.01 162.021ZM1111.3 162.419C1110.19 162.927 1107.97 162.958 1106.37 162.488C1104.78 162.017 1105.69 161.602 1108.4 161.565C1111.11 161.528 1112.42 161.911 1111.3 162.419ZM1120.27 162.323C1119.73 162.938 1118.31 163.005 1117.13 162.469C1115.81 161.878 1116.2 161.439 1118.12 161.35C1119.85 161.27 1120.82 161.708 1120.27 162.323ZM470.984 164.91C471.542 165.929 471.215 166.763 470.259 166.763C469.303 166.763 468.52 165.929 468.52 164.91C468.52 163.89 468.845 163.057 469.244 163.057C469.643 163.057 470.425 163.89 470.984 164.91ZM665.213 164.176C664.667 164.791 663.249 164.858 662.065 164.322C660.754 163.731 661.143 163.292 663.057 163.203C664.789 163.123 665.758 163.561 665.213 164.176ZM673.427 164.176C672.881 164.791 671.463 164.858 670.279 164.322C668.968 163.731 669.357 163.292 671.271 163.203C673.003 163.123 673.972 163.561 673.427 164.176ZM688.657 165.836C688.657 167.365 689.396 168.616 690.3 168.616C691.204 168.616 691.941 167.574 691.94 166.299C691.936 164.58 695.544 164.139 705.925 164.583C714.385 164.947 719.527 165.892 718.933 166.976C718.394 167.96 716.648 168.299 715.052 167.728C713.459 167.157 710.009 167.954 707.389 169.496C703.168 171.979 702.56 171.983 702.091 169.531C701.496 166.436 694.343 165.734 692.764 168.616C691.664 170.626 684.889 171.16 683.295 169.36C681.695 167.557 683.891 163.057 686.369 163.057C687.627 163.057 688.657 164.307 688.657 165.836ZM839.796 165.836C838.065 168.189 838.426 168.616 842.157 168.616C844.676 168.616 846.126 169.409 845.546 170.469C844.988 171.488 842.974 172.322 841.068 172.322C839.164 172.322 838.134 172.918 838.779 173.647C839.427 174.375 845.939 174.714 853.251 174.403C865.13 173.895 866.436 174.165 865.493 176.939C864.798 178.981 865.14 179.752 866.491 179.194C867.621 178.726 868.362 177.406 868.135 176.259C867.908 175.112 869.617 174.175 871.928 174.175C874.312 174.175 875.694 174.977 875.117 176.028C874.558 177.047 874.885 177.881 875.841 177.881C876.798 177.881 877.581 177.047 877.581 176.028C877.581 172.944 883.725 173.952 884.838 177.219C885.406 178.894 885.626 180.543 885.324 180.884C885.022 181.224 877.489 181.729 868.585 182.007C856.765 182.376 852.209 181.889 851.708 180.197C851.331 178.924 849.561 177.881 847.777 177.881C845.991 177.881 844.988 178.715 845.546 179.734C846.139 180.814 844.469 181.587 841.536 181.587C838.773 181.587 836.511 180.753 836.511 179.734C836.511 178.715 833.775 177.881 830.432 177.881C823.787 177.881 824.636 174.918 831.582 173.869C834.671 173.402 835.818 171.984 836.208 168.152C836.527 165.028 837.718 163.057 839.286 163.057C841.372 163.057 841.466 163.568 839.796 165.836ZM1003.26 167.33C1005.06 167.861 1003.03 168.212 998.739 168.11C994.448 168.008 990.936 167.189 990.936 166.292C990.936 165.393 992.506 165.223 994.427 165.91C997.096 166.864 997.602 166.568 996.575 164.645C995.521 162.667 995.739 162.582 997.602 164.246C998.905 165.412 1001.45 166.798 1003.26 167.33ZM797.905 166.763C797.346 167.782 796.194 168.616 795.343 168.616C794.492 168.616 793.798 167.782 793.798 166.763C793.798 165.743 794.951 164.91 796.359 164.91C797.767 164.91 798.463 165.743 797.905 166.763ZM622.944 168.616C626.13 170.937 627.873 170.937 627.873 168.616C627.873 167.596 626.209 166.776 624.177 166.79C621.188 166.814 620.952 167.163 622.944 168.616ZM777.369 169.42C777.369 170.924 779.328 172.359 781.887 172.727C785.511 173.25 785.064 173.554 779.628 174.267C773.451 175.077 772.852 174.784 772.852 170.96C772.852 168.634 773.859 166.763 775.11 166.763C776.352 166.763 777.369 167.958 777.369 169.42ZM828.297 168.339C828.297 169.27 825.325 170.078 821.693 170.135C818.059 170.191 815.42 169.629 815.826 168.888C816.93 166.876 828.297 166.375 828.297 168.339ZM316.559 170.469C317.117 171.488 316.421 172.322 315.013 172.322C313.605 172.322 312.452 171.488 312.452 170.469C312.452 169.449 313.147 168.616 313.998 168.616C314.849 168.616 316 169.449 316.559 170.469ZM642.658 170.578C642.658 171.656 641.837 171.968 640.831 171.267C639.828 170.567 638.361 171.143 637.572 172.548C636.437 174.567 636.131 174.423 636.112 171.858C636.097 169.842 637.329 168.616 639.373 168.616C641.18 168.616 642.658 169.499 642.658 170.578ZM665.658 170.005C665.658 170.769 663.88 171.395 661.707 171.395C659.535 171.395 658.101 170.769 658.52 170.005C658.937 169.242 660.715 168.616 662.469 168.616C664.224 168.616 665.658 169.242 665.658 170.005ZM978.615 170.469C978.056 171.488 975.979 172.262 974 172.192C970.53 172.066 970.519 172.005 973.686 170.469C978.207 168.276 979.815 168.276 978.615 170.469ZM1099.36 170.469C1099.36 171.488 1101.03 172.335 1103.06 172.349C1105.09 172.366 1107.86 173.187 1109.22 174.175C1111.04 175.5 1109.74 176.074 1104.29 176.361C1100.22 176.576 1094.31 177.082 1091.15 177.484C1087.99 177.888 1059.89 178.463 1028.72 178.761C997.548 179.059 976.479 178.681 981.9 177.92C987.321 177.16 995.453 176.018 999.971 175.385C1017.33 172.952 1038.38 172.318 1039.41 174.195C1039.98 175.236 1041.21 175.559 1042.13 174.912C1043.06 174.267 1045.55 174.781 1047.66 176.055C1049.77 177.33 1052.84 177.768 1054.48 177.026C1056.13 176.285 1062.78 175.533 1069.28 175.355C1075.77 175.177 1081.56 174.486 1082.15 173.819C1082.74 173.154 1085.75 173.07 1088.83 173.634C1093.29 174.449 1094.43 174.041 1094.43 171.638C1094.43 169.976 1095.54 168.616 1096.9 168.616C1098.25 168.616 1099.36 169.449 1099.36 170.469ZM1147.69 170.932C1148.45 172.785 1148.84 172.785 1149.6 170.932C1150.64 168.441 1164.35 167.648 1165.64 170.005C1166.06 170.769 1163.15 171.102 1159.17 170.745C1154.65 170.339 1151.93 170.861 1151.93 172.134C1151.93 175.225 1144.21 174.577 1143.12 171.395C1141.97 168.015 1146.3 167.576 1147.69 170.932ZM766.691 172.322C766.132 173.341 763.686 174.115 761.255 174.045C757.307 173.928 757.186 173.743 760.12 172.322C764.684 170.109 767.903 170.109 766.691 172.322ZM921.116 172.322C920.557 173.341 921.623 174.175 923.483 174.175C925.343 174.175 926.866 173.341 926.866 172.322C926.866 170.133 930.049 170.628 932.754 173.237C935.236 175.629 926.8 179.852 922.231 178.505C920.467 177.984 918.525 178.464 917.919 179.572C917.311 180.681 915.706 181.587 914.351 181.587C912.995 181.587 912.379 180.688 912.981 179.591C913.738 178.209 911.748 177.988 906.506 178.874C901.915 179.65 898.938 179.445 898.938 178.349C898.938 177.358 903.176 176.052 908.358 175.45C913.539 174.847 918.036 173.48 918.351 172.411C918.666 171.343 919.647 170.469 920.528 170.469C921.41 170.469 921.674 171.302 921.116 172.322ZM968.086 172.177C966.814 173.087 963.596 173.521 960.936 173.141C957.212 172.609 955.906 173.287 955.255 176.093C954.79 178.096 953.78 179.734 953.011 179.734C951.237 179.734 953.148 173.7 955.495 171.886C956.464 171.138 960.215 170.526 963.829 170.526C968.312 170.526 969.666 171.05 968.086 172.177ZM389.664 173.958C389.664 176.165 383.313 177.927 382.263 176.013C381.805 175.175 382.359 174.069 383.494 173.552C386.858 172.021 389.664 172.207 389.664 173.958ZM411.021 174.175C411.021 175.194 410.326 176.028 409.475 176.028C408.624 176.028 407.472 175.194 406.914 174.175C406.355 173.155 407.052 172.322 408.46 172.322C409.868 172.322 411.021 173.155 411.021 174.175ZM440.592 173.973C440.592 176.774 428.596 177.371 424.208 174.788C420.364 172.525 420.817 172.344 430.324 172.333C435.972 172.327 440.592 173.065 440.592 173.973ZM445.643 174.684C445.44 176.9 443.187 176.471 442.481 174.082C442.12 172.859 442.711 172.192 443.795 172.6C444.879 173.007 445.711 173.945 445.643 174.684ZM460.19 180.521C460.253 181.464 458.935 180.631 457.26 178.668C455.195 176.25 454.797 174.675 456.028 173.78C457.672 172.579 459.898 176.183 460.19 180.521ZM474.135 173.446C477.478 174.894 477.504 177.881 474.173 177.881C472.765 177.881 472.04 178.664 472.566 179.621C473.09 180.579 472.029 181.236 470.207 181.081C466.8 180.792 466.269 176.285 469.341 173.739C471.353 172.071 471.007 172.092 474.135 173.446ZM1119.08 174.175C1119.08 175.194 1117.78 176.015 1116.2 176C1113.74 175.976 1113.68 175.709 1115.79 174.175C1118.89 171.914 1119.08 171.914 1119.08 174.175ZM490.762 177.06C486.559 179.005 486.336 179.437 489.119 180.234C491.723 180.981 491.55 181.198 488.219 181.372C485.84 181.496 483.3 180.149 482.214 178.19C480.491 175.077 480.975 174.794 487.98 174.801C495.555 174.808 495.58 174.829 490.762 177.06ZM513.344 179.196C514.006 183.102 513.617 183.603 510.62 182.695C508.698 182.113 504.169 181.6 500.555 181.555C495.237 181.49 494.539 181.109 496.893 179.563C498.493 178.513 499.39 176.9 498.885 175.979C498.381 175.06 501.254 174.382 505.269 174.473C511.668 174.617 512.667 175.201 513.344 179.196ZM561.616 178.924C563.323 181.555 564.255 181.818 565.781 180.097C568.516 177.012 572.017 177.327 572.017 180.66C572.017 182.826 569.931 183.408 562.571 183.293C557.375 183.214 554.05 182.726 555.178 182.213C560.008 180.013 556.57 177.881 548.196 177.881C538.423 177.881 535.795 180.881 544.5 182.1C547.82 182.563 546.304 182.958 540.49 183.143C535.243 183.31 530.656 182.556 530.037 181.425C529.241 179.975 528.433 179.975 527.147 181.425C526.164 182.534 524.252 183.44 522.897 183.44C521.075 183.44 520.914 182.897 522.276 181.361C523.289 180.217 523.71 178.079 523.209 176.608C522.44 174.347 525.169 174.058 540.859 174.734C556.433 175.405 559.773 176.078 561.616 178.924ZM598.294 178.344C598.307 180.414 587.157 180.026 586.001 177.916C585.399 176.821 587.639 176.269 591.646 176.526C595.297 176.761 598.289 177.58 598.294 178.344ZM657.444 177.771C657.444 178.731 656.706 180.028 655.806 180.656C652.939 182.654 608.563 181.737 604.873 179.604C602.997 178.52 623.347 176.611 639.783 176.33C649.913 176.157 657.444 176.771 657.444 177.771ZM729.488 178.846C731.219 180.799 728.111 181.461 712.789 182.4C697.077 183.366 680.443 181.005 680.443 177.81C680.443 176.181 728.017 177.188 729.488 178.846ZM788.048 179.667C777.45 180.734 769.482 179.949 772.121 178.096C773.014 177.467 779.181 177.341 785.825 177.814L797.905 178.674L788.048 179.667ZM816.797 177.881C816.797 178.9 816.472 179.734 816.073 179.734C815.673 179.734 814.891 178.9 814.333 177.881C813.774 176.862 814.101 176.028 815.057 176.028C816.013 176.028 816.797 176.862 816.797 177.881ZM853.76 177.881C853.202 178.9 853.898 179.734 855.306 179.734C856.714 179.734 857.867 178.9 857.867 177.881C857.867 176.862 857.172 176.028 856.322 176.028C855.471 176.028 854.319 176.862 853.76 177.881ZM1194.34 177.293C1195.52 177.829 1196.94 177.762 1197.49 177.147C1198.03 176.532 1197.06 176.094 1195.33 176.174C1193.42 176.263 1193.03 176.702 1194.34 177.293ZM809.5 179.56C808.994 180.482 807.101 180.803 805.296 180.269C800.775 178.937 801.182 177.881 806.216 177.881C808.527 177.881 810.006 178.637 809.5 179.56ZM894.42 179.107C893.291 179.622 891.443 179.622 890.313 179.107C889.184 178.594 890.108 178.173 892.367 178.173C894.625 178.173 895.55 178.594 894.42 179.107ZM969.99 179.107C968.861 179.622 967.013 179.622 965.883 179.107C964.754 178.594 965.677 178.173 967.936 178.173C970.195 178.173 971.12 178.594 969.99 179.107ZM1182.32 187.146C1182.88 188.165 1183.66 188.999 1184.06 188.999C1184.46 188.999 1184.79 188.165 1184.79 187.146C1184.79 186.127 1184 185.293 1183.05 185.293C1182.09 185.293 1181.77 186.127 1182.32 187.146ZM1225.55 186.558C1226.74 187.094 1228.15 187.027 1228.7 186.412C1229.24 185.797 1228.28 185.359 1226.54 185.439C1224.63 185.528 1224.24 185.967 1225.55 186.558ZM553.943 209.845C553.944 210.609 538.975 211.079 520.679 210.89C497.65 210.651 491.71 210.223 501.376 209.501C521.435 208 553.94 208.213 553.943 209.845ZM570.374 210.525C570.374 210.914 566.864 211.137 562.571 211.016C555.86 210.827 555.458 210.62 559.696 209.534C564.301 208.354 570.374 208.919 570.374 210.525ZM485.358 210.609C484.23 211.124 482.382 211.124 481.251 210.609C480.123 210.095 481.046 209.675 483.305 209.675C485.564 209.675 486.489 210.095 485.358 210.609ZM336.679 214.559C337.817 215.404 331.077 216.144 321.502 216.223C312.028 216.303 304.575 215.825 304.939 215.16C305.935 213.344 334.316 212.808 336.679 214.559ZM1087.55 216.207C1088.74 216.742 1090.16 216.675 1090.7 216.06C1091.25 215.445 1090.28 215.008 1088.55 215.087C1086.63 215.176 1086.24 215.615 1087.55 216.207ZM967.491 217.913C966.946 218.528 965.528 218.595 964.343 218.06C963.032 217.468 963.422 217.029 965.336 216.94C967.067 216.861 968.036 217.298 967.491 217.913ZM396.556 221.882C406.219 222.208 422.483 222.21 432.698 221.884C442.913 221.558 435.006 221.291 415.128 221.289C395.25 221.288 386.893 221.554 396.556 221.882ZM543.79 222.757C544.666 223.745 546.756 224.226 548.433 223.824C550.692 223.285 550.278 222.818 546.839 222.029C543.841 221.338 542.762 221.597 543.79 222.757ZM1053.06 221.766C1054.24 222.301 1055.66 222.234 1056.2 221.619C1056.75 221.004 1055.78 220.567 1054.05 220.646C1052.13 220.735 1051.74 221.175 1053.06 221.766ZM556.841 223.663C558.884 224.106 561.841 224.089 563.412 223.626C564.983 223.163 563.31 222.8 559.696 222.82C556.082 222.84 554.797 223.22 556.841 223.663ZM579.84 223.663C581.884 224.106 584.841 224.089 586.411 223.626C587.982 223.163 586.31 222.8 582.695 222.82C579.081 222.84 577.797 223.22 579.84 223.663ZM630.777 223.697C633.73 224.108 638.165 224.1 640.634 223.678C643.104 223.254 640.687 222.916 635.266 222.927C629.844 222.937 627.825 223.283 630.777 223.697ZM654.592 223.684C657.089 224.108 660.785 224.097 662.806 223.658C664.826 223.218 662.783 222.87 658.265 222.883C653.747 222.898 652.095 223.257 654.592 223.684ZM869.778 223.63C871.358 224.097 873.947 224.097 875.528 223.63C877.108 223.165 875.815 222.783 872.653 222.783C869.49 222.783 868.197 223.165 869.778 223.63ZM896.884 223.58C898.015 224.095 899.863 224.095 900.991 223.58C902.122 223.066 901.197 222.646 898.938 222.646C896.679 222.646 895.756 223.066 896.884 223.58Z" fill="#FFD119"/>
</svg>
